<?xml version="1.0" standalone="no"?>
<!DOCTYPE svg PUBLIC "-//W3C//DTD SVG 20010904//EN"
 "http://www.w3.org/TR/2001/REC-SVG-20010904/DTD/svg10.dtd">
<svg version="1.0" xmlns="http://www.w3.org/2000/svg"
 width="270.000000pt" height="270.000000pt" viewBox="0 0 270.000000 270.000000"
 preserveAspectRatio="xMidYMid meet">
<metadata>
Created by potrace 1.14, written by Peter Selinger 2001-2017
</metadata>
<g transform="translate(0.000000,270.000000) scale(0.100000,-0.100000)"
fill="#000000" stroke="none">
<path d="M1375 2340 c-3 -5 -1 -10 4 -10 6 0 11 5 11 10 0 6 -2 10 -4 10 -3 0
-8 -4 -11 -10z"/>
<path d="M1454 2329 c5 -21 2 -25 -14 -24 -11 1 -23 5 -27 10 -5 4 -3 5 4 1 6
-3 15 -1 19 6 4 7 4 10 -1 6 -4 -4 -15 -2 -24 4 -9 7 -13 9 -9 4 4 -4 1 -14
-5 -21 -10 -11 -16 -10 -31 3 -11 10 -16 12 -13 6 4 -7 -3 -14 -18 -16 -14 -3
-25 -1 -25 3 0 5 5 9 10 9 6 0 10 5 10 11 0 8 -4 9 -13 0 -8 -6 -18 -7 -22 -3
-5 4 -5 2 -2 -4 4 -7 0 -15 -9 -18 -12 -5 -15 -2 -10 11 5 16 4 16 -6 3 -7 -9
-24 -15 -38 -14 -14 1 -30 -3 -37 -8 -15 -12 -36 -1 -27 14 4 7 2 8 -5 4 -6
-4 -9 -12 -6 -17 4 -5 -6 -9 -20 -9 -14 0 -24 -4 -21 -8 3 -5 -1 -9 -9 -9 -8
0 -12 5 -8 10 3 5 -6 1 -20 -8 -15 -9 -31 -14 -37 -10 -5 3 -10 3 -10 -2 0
-11 -51 -34 -61 -27 -5 3 -9 0 -9 -7 0 -7 -3 -10 -6 -6 -4 3 -13 -1 -21 -9 -9
-8 -22 -13 -29 -10 -8 3 -14 -1 -14 -9 0 -8 -7 -15 -15 -15 -8 0 -15 -5 -15
-11 0 -8 -6 -7 -17 2 -10 8 -14 9 -10 2 4 -6 3 -14 -3 -18 -6 -4 -8 -10 -5
-15 3 -5 0 -12 -6 -16 -8 -4 -9 -3 -5 4 4 7 2 12 -4 12 -6 0 -13 -7 -17 -16
-3 -8 -11 -13 -17 -11 -10 4 -37 -16 -36 -28 0 -3 -3 -6 -7 -7 -21 -5 -74 -68
-67 -79 4 -8 3 -9 -4 -5 -7 4 -17 4 -24 0 -8 -5 -6 -10 8 -16 15 -7 14 -8 -8
-5 -15 2 -25 1 -22 -4 2 -4 -8 -21 -24 -37 -16 -16 -27 -37 -26 -46 1 -9 -2
-14 -6 -11 -11 7 -53 -52 -45 -64 3 -6 0 -13 -8 -18 -14 -9 -42 -63 -38 -77 1
-4 -5 -14 -14 -20 -9 -6 -16 -16 -15 -21 2 -6 1 -12 0 -15 -2 -5 -7 -29 -13
-52 -1 -7 -6 -18 -10 -24 -4 -7 0 -14 8 -18 9 -3 15 0 15 9 0 8 5 15 10 15 7
0 7 -6 0 -20 -6 -10 -16 -17 -23 -14 -8 3 -14 -1 -15 -8 0 -7 -3 -25 -6 -41
-4 -18 -2 -26 5 -25 6 2 13 -3 15 -10 1 -7 0 -8 -2 -3 -3 6 -12 7 -19 5 -11
-5 -12 -9 -2 -19 7 -7 16 -10 21 -7 5 3 6 0 2 -7 -6 -9 -11 -9 -22 0 -12 10
-15 10 -12 -2 2 -8 8 -17 13 -21 6 -5 6 -8 -1 -8 -15 0 -16 -67 -2 -94 10 -19
10 -20 -6 -7 -14 12 -16 12 -10 -3 3 -9 10 -16 15 -16 5 0 9 -5 9 -11 0 -5 -4
-8 -9 -5 -10 7 -9 -53 1 -69 4 -6 5 -23 4 -37 -2 -21 0 -25 13 -20 14 5 14 4
1 -13 -11 -14 -12 -19 -2 -22 6 -3 10 -9 6 -14 -3 -5 1 -9 8 -9 9 0 9 -3 -2
-10 -13 -8 -12 -10 4 -10 15 0 16 -3 7 -14 -10 -11 -8 -17 9 -29 13 -9 17 -16
10 -19 -14 -4 44 -138 60 -138 5 0 9 -3 9 -7 -4 -22 2 -33 13 -27 7 5 9 2 5
-9 -4 -10 3 -23 21 -37 15 -12 20 -19 12 -15 -10 4 -9 2 2 -8 10 -8 14 -18 10
-22 -4 -5 -1 -5 6 -1 8 5 12 0 12 -13 0 -12 3 -20 8 -19 4 2 17 -7 30 -19 24
-25 29 -39 10 -27 -7 5 -8 3 -4 -5 5 -7 15 -10 23 -6 14 5 14 3 2 -12 -8 -9
-9 -14 -3 -10 6 3 21 -5 32 -18 22 -26 29 -40 14 -31 -5 3 -9 -1 -9 -9 0 -8 7
-17 14 -19 8 -3 11 -1 8 4 -3 5 -1 18 4 27 9 16 10 15 11 -6 0 -16 4 -21 15
-17 8 3 15 2 15 -2 0 -5 7 -17 16 -28 8 -10 12 -12 8 -4 -5 12 -4 12 6 3 7 -6
18 -9 25 -7 7 3 15 -2 19 -12 5 -13 4 -14 -7 -6 -9 8 -17 8 -27 0 -12 -8 -12
-9 2 -4 10 3 20 1 24 -5 4 -6 10 -7 17 0 12 9 47 -8 47 -24 0 -4 -8 -1 -17 6
-16 12 -17 12 -6 -2 7 -9 11 -18 8 -21 -3 -2 2 -5 9 -5 8 0 14 3 13 6 -1 3 1
7 6 9 17 5 27 1 27 -14 0 -9 -5 -12 -12 -8 -7 4 -8 3 -4 -4 4 -6 13 -9 21 -6
8 4 12 11 9 16 -4 6 3 5 15 -1 11 -7 21 -8 21 -4 0 4 7 -2 16 -13 8 -10 13
-14 10 -7 -8 15 17 11 38 -6 9 -7 23 -11 31 -7 8 3 15 1 15 -4 0 -6 -5 -10
-12 -10 -6 0 -9 -3 -5 -6 3 -3 12 -2 19 2 17 11 48 12 48 2 0 -4 6 -7 13 -6 6
2 11 -3 9 -10 -1 -8 2 -11 8 -7 6 3 8 11 5 16 -4 5 -1 9 5 9 6 0 14 -8 17 -17
6 -15 7 -15 13 1 6 17 7 17 23 2 10 -10 17 -12 17 -6 0 13 48 11 67 -3 6 -4
14 -3 19 4 5 8 3 9 -6 4 -9 -6 -11 -4 -5 5 6 10 11 9 22 -5 8 -12 13 -14 13
-6 0 8 6 11 16 7 10 -4 13 -2 9 7 -4 6 1 3 9 -7 9 -11 16 -14 16 -8 0 7 14 12
31 12 21 0 28 4 23 13 -6 9 -5 9 8 0 8 -7 18 -9 22 -5 4 4 16 8 27 8 37 3 40
4 33 17 -6 8 -3 8 9 -1 18 -15 41 -7 30 11 -5 9 -3 9 8 0 11 -9 20 -8 39 2 31
18 43 19 35 3 -4 -7 0 -5 8 4 8 10 17 15 20 11 4 -3 7 -1 7 6 0 7 4 10 9 7 5
-4 11 -2 13 2 1 5 33 23 71 41 44 21 65 36 61 44 -4 7 -4 9 1 5 4 -4 17 -2 29
4 11 7 24 11 28 10 4 -1 4 6 1 15 -5 12 -3 14 7 8 10 -6 12 -4 7 9 -4 11 -3
15 4 11 5 -4 18 3 28 14 10 12 23 21 29 21 6 0 13 9 17 19 3 11 12 22 20 25 8
3 15 13 15 22 0 11 5 14 17 10 10 -4 14 -4 10 0 -3 4 3 20 14 35 11 16 17 29
13 29 -4 0 1 7 12 15 14 11 15 14 4 15 -9 0 -4 6 10 13 13 7 29 26 35 42 5 17
14 33 19 37 6 4 5 17 -2 35 -11 25 -11 26 2 10 16 -21 21 -16 31 31 3 18 11
30 16 26 5 -3 9 0 9 5 0 6 -8 11 -17 11 -15 0 -16 2 -3 9 8 6 17 8 21 5 9 -5
6 17 -5 35 -6 10 -5 12 2 7 7 -4 13 -2 13 3 2 14 6 30 9 34 3 4 10 40 14 82 3
22 6 42 7 45 7 18 2 96 -6 102 -6 5 -5 8 3 8 6 0 12 7 12 15 0 8 -4 15 -10 15
-5 0 -10 5 -10 11 0 5 4 8 8 5 5 -3 8 5 8 17 -1 13 -9 25 -21 29 -18 5 -17 6
5 7 15 1 20 4 13 9 -6 4 -12 27 -14 52 -1 25 -6 50 -11 56 -4 6 -9 23 -10 38
-1 14 -6 26 -11 26 -5 0 -3 8 4 17 8 9 9 14 4 11 -6 -4 -17 2 -24 14 -10 16
-10 19 1 13 7 -3 4 1 -6 9 -13 10 -15 16 -6 16 8 0 5 7 -8 18 -19 17 -19 19
-4 30 15 10 15 11 -2 5 -16 -5 -18 -3 -14 15 4 15 2 22 -8 22 -8 0 -11 -7 -8
-17 5 -15 4 -15 -4 -3 -7 9 -7 19 -2 26 14 16 -1 26 -18 11 -13 -10 -14 -9 -8
1 4 7 1 23 -7 36 -12 18 -13 26 -4 36 9 10 9 11 0 6 -12 -6 -17 5 -14 26 0 4
-7 4 -16 1 -13 -5 -15 -2 -10 11 4 10 3 15 -3 11 -6 -3 -10 -2 -10 3 0 4 -9
18 -21 30 -11 13 -17 28 -13 35 5 8 2 7 -9 -2 -17 -13 -23 -6 -18 22 0 4 -6 7
-14 7 -8 0 -15 5 -15 10 0 6 -5 10 -11 10 -20 0 -99 74 -94 89 4 11 3 12 -10
1 -11 -9 -15 -9 -15 -1 0 7 -4 9 -10 6 -5 -3 -15 3 -21 13 -8 13 -19 17 -32
14 -16 -4 -19 -1 -14 11 3 9 1 19 -5 23 -7 4 -8 3 -4 -4 10 -16 5 -15 -51 10
-26 12 -54 20 -60 19 -7 -1 -13 3 -13 10 0 6 -7 9 -15 6 -23 -10 -29 12 -8 36
18 22 18 22 -3 5 -22 -19 -74 -25 -74 -9 0 5 3 11 8 14 4 2 2 3 -4 1 -6 -1
-18 3 -25 9 -10 10 -10 8 0 -6 19 -24 5 -35 -15 -11 -8 10 -13 14 -10 8 11
-23 -40 -8 -52 16 l-13 25 5 -26z m-679 -268 c-9 -8 -36 -10 -30 -2 2 4 11 8
20 8 8 0 13 -3 10 -6z m40 -21 c3 -6 -1 -7 -9 -4 -18 7 -21 14 -7 14 6 0 13
-4 16 -10z m-79 -22 c3 -4 -1 -5 -10 -4 -8 1 -18 5 -22 8 -3 4 1 5 10 4 8 -1
18 -5 22 -8z m-48 -23 c-3 -3 -9 2 -12 12 -6 14 -5 15 5 6 7 -7 10 -15 7 -18z
m-18 -39 c0 -2 -8 -10 -17 -17 -16 -13 -17 -12 -4 4 13 16 21 21 21 13z m-63
-81 c0 -8 -4 -12 -9 -9 -5 3 -6 10 -3 15 9 13 12 11 12 -6z m803 5 c0 -5 -5
-10 -11 -10 -5 0 -7 5 -4 10 3 6 8 10 11 10 2 0 4 -4 4 -10z m-26 -18 c3 -5
-1 -9 -9 -9 -8 0 -12 4 -9 9 3 4 7 8 9 8 2 0 6 -4 9 -8z m-800 -11 c3 -4 -6
-6 -19 -3 -14 2 -25 6 -25 8 0 8 39 4 44 -5z m-34 -15 c0 -2 -7 -7 -16 -10 -8
-3 -12 -2 -9 4 6 10 25 14 25 6z m740 -16 c0 -5 -5 -10 -11 -10 -5 0 -7 5 -4
10 3 6 8 10 11 10 2 0 4 -4 4 -10z m60 0 c0 -5 -4 -10 -10 -10 -5 0 -10 5 -10
10 0 6 5 10 10 10 6 0 10 -4 10 -10z m27 -25 c-9 -7 -13 -16 -9 -20 4 -5 1 -5
-5 -1 -18 10 -16 26 3 26 9 0 12 5 8 12 -5 7 -3 8 6 3 10 -6 10 -11 -3 -20z
m-832 -6 c-4 -5 -12 -9 -18 -8 -9 0 -8 2 1 6 6 2 9 10 6 15 -4 7 -2 8 5 4 6
-4 9 -12 6 -17z m776 0 c6 -12 7 -19 1 -15 -5 3 -13 -1 -16 -10 -5 -13 -9 -14
-21 -4 -8 7 -15 17 -15 23 0 6 7 2 16 -9 14 -17 15 -17 10 -1 -4 12 -2 16 6
11 8 -5 9 -2 5 9 -9 24 0 21 14 -4z m80 -2 c-10 -9 -11 -8 -5 6 3 10 9 15 12
12 3 -3 0 -11 -7 -18z m-811 -2 c5 3 11 1 14 -4 4 -5 -2 -8 -11 -7 -9 2 -18 8
-19 15 -1 6 0 7 3 1 2 -5 9 -8 13 -5z m861 0 c11 6 11 5 2 -5 -12 -14 -33 -6
-33 13 0 8 3 7 9 -2 5 -8 14 -10 22 -6z m90 -12 c13 -16 12 -17 -3 -4 -10 7
-18 15 -18 17 0 8 8 3 21 -13z m-996 -34 c0 -19 -6 -24 -25 -24 -16 0 -26 7
-28 18 -2 9 1 17 7 17 6 0 8 -6 5 -13 -2 -7 3 -13 14 -14 11 -1 18 6 19 18 1
11 -2 17 -6 15 -4 -3 -13 0 -21 5 -11 7 -8 8 10 6 19 -3 25 -10 25 -28z m811
19 c4 -7 3 -8 -4 -4 -7 4 -12 2 -12 -5 0 -7 -3 -10 -6 -6 -6 5 3 27 11 27 2 0
7 -5 11 -12z m69 -19 c0 -19 -6 -24 -25 -24 -16 0 -26 7 -28 18 -2 9 1 17 7
17 6 0 8 -6 5 -13 -2 -7 3 -13 14 -14 11 -1 18 6 19 18 1 11 -2 17 -6 15 -4
-3 -13 0 -21 5 -11 7 -8 8 10 6 19 -3 25 -10 25 -28z m-182 0 c-8 -8 -13 -7
-18 2 -5 8 -4 10 3 5 7 -4 12 -2 12 5 0 7 3 9 7 6 4 -4 2 -12 -4 -18z m88 -13
c5 3 12 -2 15 -10 3 -9 9 -14 13 -12 4 3 8 -5 8 -17 2 -19 0 -18 -16 7 -10 15
-22 27 -27 26 -5 0 -9 5 -10 12 -1 10 0 10 3 0 3 -7 9 -10 14 -6z m153 16 c2
-4 0 -14 -6 -22 -8 -12 -9 -11 -4 3 5 15 2 17 -17 12 -17 -5 -19 -4 -7 4 18
13 27 14 34 3z m66 -4 c0 -4 -4 -8 -9 -8 -6 0 -12 4 -15 8 -3 5 1 9 9 9 8 0
15 -4 15 -9z m640 6 c0 -8 -19 -13 -24 -6 -3 5 1 9 9 9 8 0 15 -2 15 -3z
m-900 -14 c0 -5 -7 -6 -17 -3 -12 5 -14 3 -8 -7 5 -9 4 -11 -4 -6 -6 4 -9 12
-6 17 8 12 35 12 35 -1z m-64 -29 c1 -12 -7 -26 -17 -32 -13 -6 -19 -6 -19 1
0 5 6 10 13 10 7 0 13 8 14 19 1 13 -3 17 -17 14 -10 -3 -20 -1 -23 4 -3 5 7
8 21 7 20 0 27 -6 28 -23z m314 12 c0 -3 -9 -3 -21 0 -15 4 -19 2 -15 -9 3 -8
1 -14 -4 -14 -11 0 -14 23 -4 32 6 7 44 -2 44 -9z m40 13 c0 -2 -8 -10 -17
-17 -16 -13 -17 -12 -4 4 13 16 21 21 21 13z m-963 -28 c-3 -8 -6 -5 -6 6 -1
11 2 17 5 13 3 -3 4 -12 1 -19z m-130 -10 c2 -17 0 -19 -7 -8 -5 8 -6 18 -4
22 8 12 10 10 11 -14z m703 5 c0 -2 -6 -3 -12 -2 -27 3 -39 -1 -32 -13 5 -7 3
-8 -6 -3 -10 6 -9 11 4 21 16 11 46 10 46 -3z m57 -5 c-3 -8 -6 -5 -6 6 -1 11
2 17 5 13 3 -3 4 -12 1 -19z m47 8 c-10 -8 -21 -12 -24 -10 -5 6 21 24 34 24
6 0 1 -6 -10 -14z m166 -1 c-1 -5 7 -13 17 -17 17 -7 17 -8 0 -5 -10 1 -17 6
-17 12 1 5 -7 13 -17 17 -17 7 -17 8 0 5 10 -1 17 -6 17 -12z m-933 -1 c-3 -3
-12 -4 -19 -1 -8 3 -5 6 6 6 11 1 17 -2 13 -5z m57 -15 c-3 -5 -13 -7 -23 -4
-12 3 -17 -1 -17 -15 0 -11 6 -20 13 -20 16 0 17 -16 1 -26 -6 -4 -8 -3 -5 3
4 6 1 13 -6 16 -8 3 -13 16 -12 29 2 17 7 22 24 21 15 -2 20 1 15 9 -4 7 -3 8
5 4 6 -4 9 -12 5 -17z m504 -4 c-3 -3 -9 2 -12 12 -6 14 -5 15 5 6 7 -7 10
-15 7 -18z m319 19 c-3 -3 -12 -4 -19 -1 -8 3 -5 6 6 6 11 1 17 -2 13 -5z
m-937 -34 c0 -23 -16 -35 -26 -19 -5 8 -3 9 6 4 10 -6 11 -2 6 19 -4 18 -3 25
4 21 5 -3 10 -15 10 -25z m180 26 c0 -2 -7 -7 -16 -10 -8 -3 -12 -2 -9 4 6 10
25 14 25 6z m680 -6 c0 -5 -7 -6 -17 -3 -11 4 -14 3 -9 -5 4 -7 -2 -16 -16
-23 -13 -6 -25 -19 -25 -30 -1 -12 3 -17 9 -13 7 4 8 2 4 -5 -11 -17 -26 -3
-23 21 2 11 14 27 28 34 13 7 20 13 16 14 -5 0 -5 5 -2 10 8 13 35 13 35 0z
m105 2 c-5 -4 -11 -16 -13 -27 -3 -20 -2 -20 13 -1 8 11 15 15 15 9 0 -15 -27
-36 -34 -25 -4 6 -2 31 3 50 1 1 7 2 14 2 7 0 8 -3 2 -8z m95 -2 c-8 -5 -19
-10 -25 -10 -5 0 -3 5 5 10 8 5 20 10 25 10 6 0 3 -5 -5 -10z m40 0 c0 -5 -2
-10 -4 -10 -3 0 -8 5 -11 10 -3 6 -1 10 4 10 6 0 11 -4 11 -10z m-970 -15 c-7
-8 -17 -15 -23 -15 -6 0 -2 7 9 15 25 19 30 19 14 0z m520 0 c0 6 6 3 13 -5 7
-8 21 -17 32 -18 16 -3 18 -1 8 9 -7 7 -13 17 -13 23 0 5 6 1 14 -9 8 -11 12
-23 10 -27 -7 -11 -44 -3 -53 11 -5 7 -12 12 -17 11 -5 -1 -10 4 -12 12 -2 9
0 8 7 -2 6 -8 11 -10 11 -5z m234 0 c3 -8 1 -15 -4 -15 -6 0 -10 7 -10 15 0 8
2 15 4 15 2 0 6 -7 10 -15z m231 -4 c-3 -6 -11 -11 -16 -11 -5 0 -4 6 3 14 14
16 24 13 13 -3z m646 2 c13 -16 12 -17 -3 -4 -10 7 -18 15 -18 17 0 8 8 3 21
-13z m-1711 -3 c0 -5 -4 -10 -10 -10 -5 0 -10 5 -10 10 0 6 5 10 10 10 6 0 10
-4 10 -10z m555 0 c3 -6 -1 -7 -9 -4 -18 7 -21 14 -7 14 6 0 13 -4 16 -10z
m192 4 c-2 -3 -17 -7 -33 -10 -17 -2 -24 -1 -17 4 13 8 58 14 50 6z m133 -4
c0 -5 -2 -10 -4 -10 -3 0 -8 5 -11 10 -3 6 -1 10 4 10 6 0 11 -4 11 -10z m146
-7 c-2 -9 -8 -18 -15 -19 -6 -1 -7 0 -2 2 6 3 7 12 4 20 -3 8 -1 14 5 14 6 0
9 -8 8 -17z m94 11 c0 -8 -19 -13 -24 -6 -3 5 1 9 9 9 8 0 15 -2 15 -3z
m-1154 -40 c-3 -15 -8 -29 -11 -32 -3 -3 -3 5 -1 19 2 13 5 27 5 32 1 4 3 7 6
7 3 0 3 -12 1 -26z m619 -5 c0 -14 -5 -23 -12 -22 -8 2 -12 -6 -10 -20 1 -13
-3 -21 -10 -19 -7 1 -13 -7 -13 -18 0 -11 5 -19 12 -17 6 1 13 -7 15 -18 3
-18 2 -18 -5 -2 -4 10 -12 18 -17 18 -6 -1 -10 9 -10 22 0 12 5 21 12 20 8 -2
12 6 10 20 -1 13 3 21 11 20 6 -2 12 6 12 16 0 14 -5 18 -19 14 -10 -3 -21 -1
-24 4 -3 5 7 8 21 7 22 -1 27 -6 27 -25z m225 21 c0 -5 -4 -10 -10 -10 -5 0
-10 5 -10 10 0 6 5 10 10 10 6 0 10 -4 10 -10z m57 -21 c-2 -12 -10 -25 -18
-30 -12 -8 -12 -10 0 -18 15 -10 23 -39 15 -53 -3 -4 -16 -1 -29 8 -14 9 -22
20 -19 25 3 5 -4 9 -15 9 -12 0 -20 -5 -18 -11 1 -6 -5 -14 -13 -16 -12 -4
-12 -3 -2 5 8 5 13 13 13 18 -1 5 9 9 22 9 12 0 21 -5 20 -11 -1 -5 7 -16 18
-22 17 -11 20 -10 17 5 -2 10 -10 24 -18 31 -13 11 -13 13 0 25 8 6 16 20 18
30 3 15 0 16 -17 5 -11 -6 -19 -17 -18 -22 1 -6 -8 -11 -20 -11 -13 0 -23 4
-22 9 0 5 -5 13 -13 18 -10 8 -10 9 2 5 8 -2 14 -10 13 -16 -2 -6 6 -11 17
-11 11 0 19 4 18 9 -4 12 34 41 44 35 4 -3 6 -14 5 -25z m115 16 c-2 -5 5 -13
15 -17 16 -7 16 -8 -2 -5 -11 2 -19 9 -17 15 1 7 -7 12 -19 12 -11 0 -18 -4
-14 -9 3 -6 -4 -15 -15 -21 -13 -7 -20 -7 -20 0 0 5 7 10 15 10 8 0 14 3 14 8
-3 18 3 23 24 20 12 -2 21 -7 19 -13z m106 8 c-1 -5 3 -19 10 -33 12 -22 11
-23 -1 -8 -8 10 -16 16 -18 13 -3 -2 -5 5 -6 15 -1 11 2 20 8 20 5 0 8 -3 7
-7z m-1001 -18 c0 -8 -4 -15 -9 -15 -4 0 -8 7 -8 15 0 8 4 15 8 15 5 0 9 -7 9
-15z m603 5 c0 -5 -5 -10 -11 -10 -5 0 -7 5 -4 10 3 6 8 10 11 10 2 0 4 -4 4
-10z m27 -12 c-3 -8 -6 -5 -6 6 -1 11 2 17 5 13 3 -3 4 -12 1 -19z m-710 6
c-3 -3 -12 -4 -19 -1 -8 3 -5 6 6 6 11 1 17 -2 13 -5z m533 -4 c8 -5 11 -10 5
-10 -5 0 -17 5 -25 10 -8 5 -10 10 -5 10 6 0 17 -5 25 -10z m347 -12 c-3 -8
-6 -5 -6 6 -1 11 2 17 5 13 3 -3 4 -12 1 -19z m170 16 c-3 -3 -12 -4 -19 -1
-8 3 -5 6 6 6 11 1 17 -2 13 -5z m68 -4 c-3 -5 -1 -10 6 -10 7 0 10 -3 6 -6
-9 -9 -28 6 -22 17 4 5 8 9 11 9 3 0 2 -4 -1 -10z m-1185 -4 c0 -2 -7 -7 -16
-10 -8 -3 -12 -2 -9 4 6 10 25 14 25 6z m707 -2 c-3 -3 -12 -4 -19 -1 -8 3 -5
6 6 6 11 1 17 -2 13 -5z m-622 -34 c0 -19 -5 -25 -24 -25 -16 0 -25 6 -27 19
-4 27 2 33 28 32 17 -1 23 -7 23 -26z m40 -6 c1 -23 0 -24 -12 -7 -9 11 -10
19 -3 21 5 2 7 9 3 15 -3 7 -2 9 2 4 5 -4 9 -19 10 -33z m411 8 c-17 -16 -18
-16 -5 5 7 12 15 20 18 17 3 -2 -3 -12 -13 -22z m125 -3 c-5 -13 -10 -19 -10
-12 -1 15 10 45 15 40 3 -2 0 -15 -5 -28z m107 10 c2 -8 0 -10 -5 -4 -16 20
-40 16 -39 -6 1 -21 -27 -35 -45 -23 -11 6 0 34 13 34 6 0 6 -6 -2 -14 -9 -12
-8 -15 10 -13 12 1 20 8 19 17 -2 27 1 30 23 27 12 -2 24 -10 26 -18z m262 11
c0 -5 -4 -10 -10 -10 -5 0 -10 5 -10 10 0 6 5 10 10 10 6 0 10 -4 10 -10z m95
-21 c0 -19 -5 -24 -25 -24 -19 0 -24 5 -23 23 1 32 1 32 26 28 16 -2 22 -10
22 -27z m-535 6 c0 -8 -4 -15 -10 -15 -5 0 -7 7 -4 15 4 8 8 15 10 15 2 0 4
-7 4 -15z m634 -1 c3 -8 2 -12 -4 -9 -6 3 -10 10 -10 16 0 14 7 11 14 -7z
m-1043 -11 c13 -16 12 -17 -3 -4 -10 7 -18 15 -18 17 0 8 8 3 21 -13z m605 -8
c-3 -9 -10 -13 -16 -10 -5 3 -10 -3 -10 -15 0 -12 5 -18 10 -15 15 9 23 -21
11 -42 -9 -15 -10 -13 -5 10 5 21 3 27 -7 25 -9 -2 -14 6 -14 22 0 15 5 24 13
23 6 -2 12 5 12 14 0 9 3 14 6 10 4 -3 4 -13 0 -22z m36 3 c-7 -7 -12 -8 -12
-2 0 6 3 14 7 17 3 4 9 5 12 2 2 -3 -1 -11 -7 -17z m148 12 c0 -5 -4 -10 -10
-10 -5 0 -10 5 -10 10 0 6 5 10 10 10 6 0 10 -4 10 -10z m83 3 c-7 -2 -13 -9
-13 -14 0 -6 5 -7 12 -3 7 5 8 3 3 -5 -5 -9 -11 -9 -17 -3 -12 12 -2 32 15 31
9 0 9 -2 0 -6z m133 -18 c-3 -9 -10 -13 -16 -10 -5 3 -10 -3 -10 -13 0 -15 5
-19 19 -15 10 3 21 1 24 -4 3 -5 -7 -8 -21 -7 -22 1 -27 6 -27 25 0 14 5 23
13 22 6 -2 12 5 12 14 0 9 3 14 6 10 4 -3 4 -13 0 -22z m-636 -5 c0 -5 -5 -10
-11 -10 -5 0 -7 5 -4 10 3 6 8 10 11 10 2 0 4 -4 4 -10z m456 -23 c-2 -15 -10
-22 -25 -21 -22 1 -26 -23 -6 -39 6 -5 4 -7 -5 -4 -8 2 -15 14 -15 28 0 18 5
23 20 21 15 -2 21 3 22 18 2 18 -1 19 -13 10 -9 -8 -14 -9 -14 -2 0 12 21 22
32 15 4 -2 6 -14 4 -26z m784 29 c0 -3 -4 -8 -10 -11 -5 -3 -10 -1 -10 4 0 6
5 11 10 11 6 0 10 -2 10 -4z m-1278 -13 c-6 -2 -9 -10 -6 -15 4 -7 2 -8 -5 -4
-13 9 -5 26 12 25 9 0 8 -2 -1 -6z m54 -29 c-3 -8 -10 -12 -16 -9 -5 3 -10 2
-10 -2 0 -5 -6 -17 -13 -27 -12 -17 -14 -17 -28 1 -12 16 -12 17 2 6 13 -11
18 -9 27 13 7 14 17 22 22 19 6 -3 10 4 11 17 0 13 3 17 6 10 3 -7 2 -20 -1
-28z m381 14 c-3 -8 -6 -5 -6 6 -1 11 2 17 5 13 3 -3 4 -12 1 -19z m-938 9
c-2 -1 -13 -9 -24 -17 -19 -14 -19 -14 -6 3 7 9 18 17 24 17 6 0 8 -1 6 -3z
m111 -17 c6 -11 9 -20 8 -20 -2 0 -11 9 -21 20 -9 11 -13 20 -7 20 5 0 14 -9
20 -20z m530 10 c0 -5 -4 -10 -10 -10 -5 0 -10 5 -10 10 0 6 5 10 10 10 6 0
10 -4 10 -10z m160 0 c0 -5 -4 -10 -10 -10 -5 0 -10 5 -10 10 0 6 5 10 10 10
6 0 10 -4 10 -10z m217 -12 c-3 -8 -6 -5 -6 6 -1 11 2 17 5 13 3 -3 4 -12 1
-19z m39 13 c-3 -5 0 -11 7 -14 18 -7 15 -50 -4 -55 -8 -2 -10 0 -4 5 15 12
15 43 -1 43 -15 0 -19 12 -7 23 9 10 15 9 9 -2z m154 -1 c8 -5 11 -10 5 -10
-5 0 -17 5 -25 10 -8 5 -10 10 -5 10 6 0 17 -5 25 -10z m541 -7 c13 -16 12
-17 -3 -4 -10 7 -18 15 -18 17 0 8 8 3 21 -13z m54 7 c3 -6 -1 -7 -9 -4 -18 7
-21 14 -7 14 6 0 13 -4 16 -10z m-1738 -6 c-3 -3 -12 -4 -19 -1 -8 3 -5 6 6 6
11 1 17 -2 13 -5z m640 0 c-3 -3 -12 -4 -19 -1 -8 3 -5 6 6 6 11 1 17 -2 13
-5z m400 0 c-3 -3 -12 -4 -19 -1 -8 3 -5 6 6 6 11 1 17 -2 13 -5z m-1072 -34
c0 -19 -5 -24 -25 -24 -18 0 -25 5 -26 19 -1 30 6 36 29 33 16 -2 22 -10 22
-28z m68 3 c15 -17 16 -23 5 -29 -7 -4 -10 -4 -6 1 4 4 1 14 -7 22 -8 8 -15
19 -15 25 0 6 1 9 3 7 1 -2 10 -14 20 -26z m572 -4 c0 -18 -5 -24 -22 -23 -15
1 -21 -4 -20 -17 1 -21 12 -25 20 -9 3 6 4 5 3 -2 -5 -24 -31 -14 -31 12 0 19
5 25 22 24 15 -1 21 4 20 17 -1 20 -17 27 -17 7 0 -6 -3 -9 -6 -5 -9 9 6 29
19 24 7 -2 12 -14 12 -28z m69 -9 c-6 -5 -24 21 -24 34 0 6 6 1 14 -10 8 -10
12 -21 10 -24z m116 30 c0 -5 -4 -10 -10 -10 -5 0 -10 5 -10 10 0 6 5 10 10
10 6 0 10 -4 10 -10z m272 -36 c-6 -12 -9 -7 -9 16 0 23 3 28 9 16 5 -9 5 -23
0 -32z m668 26 c6 -11 8 -20 6 -20 -3 0 -10 9 -16 20 -6 11 -8 20 -6 20 3 0
10 -9 16 -20z m-1830 -12 c0 -6 -6 -5 -15 2 -8 7 -15 14 -15 16 0 2 7 1 15 -2
8 -4 15 -11 15 -16z m865 -8 c-3 -5 4 -8 15 -7 11 1 20 7 20 14 0 7 5 13 10
13 7 0 7 -6 1 -19 -11 -20 -58 -23 -53 -3 1 7 -5 12 -13 12 -8 0 -15 5 -15 10
0 7 7 7 20 0 11 -6 18 -15 15 -20z m-765 16 c0 -3 -4 -8 -10 -11 -5 -3 -10 -1
-10 4 0 6 5 11 10 11 6 0 10 -2 10 -4z m640 0 c0 -3 -4 -8 -10 -11 -5 -3 -10
-1 -10 4 0 6 5 11 10 11 6 0 10 -2 10 -4z m220 -6 c0 -5 -5 -10 -11 -10 -5 0
-7 5 -4 10 3 6 8 10 11 10 2 0 4 -4 4 -10z m115 0 c3 -6 -1 -7 -9 -4 -18 7
-21 14 -7 14 6 0 13 -4 16 -10z m65 0 c0 -5 -4 -10 -10 -10 -5 0 -10 5 -10 10
0 6 5 10 10 10 6 0 10 -4 10 -10z m66 -15 c-3 -9 -10 -13 -16 -10 -5 3 -10 -3
-10 -14 0 -12 6 -20 13 -18 7 1 12 -8 12 -20 0 -13 -4 -23 -10 -22 -5 0 -13
-10 -17 -23 -7 -22 -7 -22 -5 2 1 14 8 24 15 23 6 -2 12 6 12 17 0 11 -6 19
-12 18 -8 -2 -13 7 -13 22 0 15 5 24 13 23 6 -2 12 5 12 14 0 9 3 14 6 10 4
-3 4 -13 0 -22z m89 -4 c-6 -5 -25 10 -25 20 0 5 6 4 14 -3 8 -7 12 -15 11
-17z m30 19 c3 -5 1 -10 -4 -10 -6 0 -11 5 -11 10 0 6 2 10 4 10 3 0 8 -4 11
-10z m-725 -15 c8 0 19 5 23 10 5 6 7 4 5 -5 -3 -8 -15 -14 -28 -14 -13 0 -25
6 -28 14 -2 9 0 11 5 5 4 -5 15 -10 23 -10z m666 -27 c-1 -13 -7 -22 -14 -20
-7 1 -12 -7 -12 -18 0 -11 6 -19 13 -17 18 3 15 -46 -3 -50 -9 -3 -11 -1 -5 4
15 13 18 44 3 41 -8 -2 -13 7 -13 22 0 14 5 24 12 23 6 -2 11 6 10 17 -1 11
-7 20 -14 20 -7 0 -13 5 -13 10 0 7 6 7 19 1 10 -6 18 -20 17 -33z m-1150 20
c4 -6 3 -8 -4 -4 -7 4 -10 -1 -9 -14 1 -21 12 -27 20 -10 3 6 4 5 3 -2 -4 -20
-29 -15 -32 6 -4 31 9 46 22 24z m94 0 c0 -4 -4 -8 -9 -8 -6 0 -12 4 -15 8 -3
5 1 9 9 9 8 0 15 -4 15 -9z m546 0 c4 -6 3 -8 -4 -4 -7 4 -10 -1 -9 -14 2 -25
6 -25 24 -2 13 15 13 15 3 -6 -13 -27 -32 -25 -36 3 -5 30 9 45 22 23z m85 -5
c13 -16 12 -17 -3 -5 -15 12 -17 11 -15 -7 1 -13 8 -19 21 -18 22 2 31 -42 9
-50 -7 -3 -10 -10 -6 -16 3 -6 1 -7 -5 -3 -16 10 -15 26 1 26 7 0 13 9 13 20
0 13 -6 18 -19 17 -19 -2 -32 27 -21 45 7 11 10 10 25 -9z m85 -9 c-3 -15 -8
-29 -11 -32 -3 -3 -3 5 -1 19 2 13 5 27 5 32 1 4 3 7 6 7 3 0 3 -12 1 -26z
m136 11 c-2 -5 5 -13 15 -17 16 -7 16 -8 -2 -5 -11 2 -19 9 -17 15 1 7 -7 12
-18 12 -11 0 -19 -5 -17 -12 1 -6 -7 -13 -18 -15 l-20 -3 20 9 c11 5 16 10 12
10 -5 1 -5 6 -2 12 8 13 51 8 47 -6z m737 1 c9 -10 8 -15 -2 -19 -8 -3 -13 3
-13 14 0 23 0 23 15 5z m36 -4 c-3 -3 -11 0 -18 7 -9 10 -8 11 6 5 10 -3 15
-9 12 -12z m-1828 -24 c-3 -8 -6 -5 -6 6 -1 11 2 17 5 13 3 -3 4 -12 1 -19z
m70 0 c-3 -8 -6 -5 -6 6 -1 11 2 17 5 13 3 -3 4 -12 1 -19z m93 12 c0 -5 -2
-10 -4 -10 -3 0 -8 5 -11 10 -3 6 -1 10 4 10 6 0 11 -4 11 -10z m400 -5 c0 -8
-2 -15 -4 -15 -2 0 -6 7 -10 15 -3 8 -1 15 4 15 6 0 10 -7 10 -15z m67 -7 c-3
-8 -6 -5 -6 6 -1 11 2 17 5 13 3 -3 4 -12 1 -19z m80 0 c-3 -8 -6 -5 -6 6 -1
11 2 17 5 13 3 -3 4 -12 1 -19z m250 16 c-3 -3 -12 -4 -19 -1 -8 3 -5 6 6 6
11 1 17 -2 13 -5z m170 0 c-3 -3 -12 -4 -19 -1 -8 3 -5 6 6 6 11 1 17 -2 13
-5z m93 -4 c0 -5 -4 -10 -10 -10 -5 0 -10 5 -10 10 0 6 5 10 10 10 6 0 10 -4
10 -10z m-1180 -10 c0 -5 -4 -10 -10 -10 -5 0 -10 5 -10 10 0 6 5 10 10 10 6
0 10 -4 10 -10z m441 -7 c13 -16 12 -17 -3 -4 -10 7 -18 15 -18 17 0 8 8 3 21
-13z m54 -4 c-4 -5 -14 -8 -23 -8 -15 1 -15 2 1 6 9 2 14 9 11 15 -4 7 -2 8 5
4 6 -4 9 -12 6 -17z m65 11 c0 -5 -4 -10 -10 -10 -5 0 -10 5 -10 10 0 6 5 10
10 10 6 0 10 -4 10 -10z m287 4 c-3 -3 -12 -4 -19 -1 -8 3 -5 6 6 6 11 1 17
-2 13 -5z m87 -34 c0 -19 -5 -25 -23 -26 -12 -1 -25 5 -28 12 -9 23 4 41 28
40 18 -1 23 -7 23 -26z m66 20 c0 -5 -4 -10 -10 -10 -5 0 -10 5 -10 10 0 6 5
10 10 10 6 0 10 -4 10 -10z m95 -21 c0 -19 -5 -24 -25 -24 -19 0 -24 5 -23 23
1 32 1 32 26 28 16 -2 22 -10 22 -27z m171 19 c4 -7 3 -8 -4 -4 -8 5 -12 -1
-12 -14 0 -12 4 -19 8 -16 4 2 14 0 22 -5 11 -7 9 -8 -9 -6 -27 4 -36 19 -27
42 7 18 12 19 22 3z m51 -5 c0 -9 -4 -10 -14 -2 -7 6 -13 12 -13 14 0 1 6 2
13 2 8 0 14 -6 14 -14z m459 5 c4 -7 3 -8 -4 -4 -8 5 -12 -1 -13 -16 0 -13 -3
-17 -6 -10 -5 13 2 42 11 42 3 0 8 -5 12 -12z m-1770 -20 c-9 -5 -23 -5 -32 0
-12 6 -7 9 16 9 23 0 28 -3 16 -9z m531 6 c-2 -3 -17 -7 -33 -10 -17 -2 -24
-1 -17 4 13 8 58 14 50 6z m23 -12 c-14 -9 -26 -25 -28 -35 -3 -15 0 -16 17
-5 11 6 19 17 18 22 -1 6 9 11 23 11 15 0 24 -5 23 -12 -2 -7 6 -13 17 -13 11
0 19 6 18 13 -2 7 7 12 22 12 14 0 24 -5 23 -11 -1 -5 7 -16 18 -22 17 -11 20
-10 17 5 -2 10 -10 24 -18 31 -13 11 -12 12 6 3 18 -9 25 -37 15 -59 0 -1 -12
5 -26 14 -14 9 -22 20 -19 25 3 5 -4 9 -15 9 -12 0 -20 -6 -18 -12 1 -8 -8
-13 -23 -13 -15 0 -24 5 -22 13 1 6 -7 12 -19 12 -11 0 -18 -4 -15 -9 3 -5 -5
-16 -19 -25 -25 -17 -35 -11 -31 17 2 18 34 46 51 47 6 0 -1 -8 -15 -18z m90
8 c-8 -5 -19 -10 -25 -10 -5 0 -3 5 5 10 8 5 20 10 25 10 6 0 3 -5 -5 -10z
m129 -5 c3 -3 -7 -4 -23 -1 -16 3 -31 8 -35 11 -3 3 7 4 23 1 16 -3 31 -8 35
-11z m71 5 c0 -5 -4 -10 -10 -10 -5 0 -10 5 -10 10 0 6 5 10 10 10 6 0 10 -4
10 -10z m120 0 c0 -5 -4 -10 -10 -10 -5 0 -10 5 -10 10 0 6 5 10 10 10 6 0 10
-4 10 -10z m60 0 c0 -5 -4 -10 -10 -10 -5 0 -10 5 -10 10 0 6 5 10 10 10 6 0
10 -4 10 -10z m265 0 c3 -5 1 -10 -4 -10 -6 0 -11 5 -11 10 0 6 2 10 4 10 3 0
8 -4 11 -10z m389 2 c3 -5 -1 -9 -9 -9 -8 0 -12 4 -9 9 3 4 7 8 9 8 2 0 6 -4
9 -8z m33 -9 c-4 -26 -16 -43 -30 -43 -7 0 -4 5 5 10 10 6 15 19 13 30 -2 11
0 20 6 20 5 0 8 -8 6 -17z m76 2 c-3 -9 -8 -14 -10 -11 -3 3 -2 9 2 15 9 16
15 13 8 -4z m-1708 -13 c-3 -3 -11 0 -18 7 -9 10 -8 11 6 5 10 -3 15 -9 12
-12z m-112 -10 c-2 -6 6 -12 17 -12 11 0 19 6 18 13 -2 7 7 12 22 12 14 0 24
-5 23 -11 -1 -5 8 -16 19 -23 18 -11 20 -11 15 3 -4 9 -2 16 3 16 11 0 14 -23
4 -33 -9 -9 -55 24 -48 34 3 5 -4 9 -15 9 -12 0 -20 -6 -18 -12 1 -8 -8 -13
-23 -13 -15 0 -24 5 -22 13 1 6 -7 12 -18 12 -11 0 -19 -5 -17 -11 1 -6 -5
-14 -13 -16 -13 -4 -13 -3 0 6 8 6 11 11 7 11 -5 0 -5 5 -2 11 9 14 51 7 48
-9z m180 0 c15 -16 15 -19 2 -19 -8 0 -13 3 -10 5 3 3 0 11 -6 19 -17 20 -5
16 14 -5z m319 -1 c16 -18 15 -20 -1 -18 -9 0 -17 9 -17 19 0 10 1 18 1 18 0
0 8 -9 17 -19z m404 -17 c3 -16 2 -26 -1 -23 -3 4 -8 19 -11 35 -3 16 -2 26 1
23 3 -4 8 -19 11 -35z m124 26 c0 -5 -4 -10 -10 -10 -5 0 -10 5 -10 10 0 6 5
10 10 10 6 0 10 -4 10 -10z m336 -14 c1 -7 -4 -13 -12 -13 -9 0 -11 4 -4 12 5
7 8 15 5 18 -3 4 -2 5 2 2 4 -3 8 -11 9 -19z m-579 -8 c-3 -8 -6 -5 -6 6 -1
11 2 17 5 13 3 -3 4 -12 1 -19z m-624 -8 c3 -11 1 -18 -4 -14 -5 3 -9 12 -9
20 0 20 7 17 13 -6z m304 5 c0 -8 -4 -12 -9 -9 -5 3 -6 10 -3 15 9 13 12 11
12 -6z m410 9 c-3 -3 -12 -4 -19 -1 -8 3 -5 6 6 6 11 1 17 -2 13 -5z m126 -12
c-2 -7 6 -12 17 -12 11 0 19 5 18 12 -2 6 6 13 17 15 18 3 18 2 2 -5 -10 -4
-18 -12 -18 -17 1 -6 -8 -10 -19 -10 -11 0 -20 4 -19 10 0 5 -8 13 -18 17 -16
7 -16 8 2 5 11 -2 19 -9 18 -15z m212 8 c3 -6 -1 -7 -9 -4 -18 7 -21 14 -7 14
6 0 13 -4 16 -10z m52 -12 c-3 -8 -6 -5 -6 6 -1 11 2 17 5 13 3 -3 4 -12 1
-19z m503 12 c-8 -5 -10 -10 -5 -10 13 -1 -36 -40 -50 -40 -5 0 4 9 20 20 17
11 26 20 22 20 -5 0 -5 5 -2 10 3 6 12 10 18 10 7 0 6 -4 -3 -10z m40 0 c0 -5
-4 -10 -10 -10 -5 0 -10 5 -10 10 0 6 5 10 10 10 6 0 10 -4 10 -10z m-863 -6
c-3 -3 -12 -4 -19 -1 -8 3 -5 6 6 6 11 1 17 -2 13 -5z m170 0 c-3 -3 -12 -4
-19 -1 -8 3 -5 6 6 6 11 1 17 -2 13 -5z m193 -29 c0 -5 -5 -3 -10 5 -5 8 -10
20 -10 25 0 6 5 3 10 -5 5 -8 10 -19 10 -25z m-1320 15 c0 -5 -4 -10 -10 -10
-5 0 -10 5 -10 10 0 6 5 10 10 10 6 0 10 -4 10 -10z m80 0 c0 -5 -4 -10 -10
-10 -5 0 -10 5 -10 10 0 6 5 10 10 10 6 0 10 -4 10 -10z m473 -27 c-3 -8 0
-13 8 -11 9 2 14 -6 14 -22 0 -16 -5 -24 -14 -22 -10 2 -12 -4 -7 -25 5 -23 4
-25 -5 -10 -12 21 -4 51 11 42 5 -3 10 3 10 14 0 12 -5 20 -12 19 -6 -2 -13
10 -14 27 -2 20 0 25 5 16 5 -8 7 -20 4 -28z m87 27 c0 -5 -4 -10 -10 -10 -5
0 -10 5 -10 10 0 6 5 10 10 10 6 0 10 -4 10 -10z m80 0 c0 -5 -4 -10 -10 -10
-5 0 -10 5 -10 10 0 6 5 10 10 10 6 0 10 -4 10 -10z m106 -2 c4 -6 3 -8 -4 -4
-6 4 -10 -1 -9 -13 0 -11 12 -24 25 -30 13 -6 20 -16 17 -21 -3 -6 3 -10 15
-10 12 0 19 4 16 9 -3 5 5 16 19 25 25 17 35 11 31 -17 -2 -18 -34 -46 -51
-47 -5 0 1 8 15 18 14 9 26 25 28 35 3 15 0 16 -17 5 -11 -6 -19 -17 -18 -22
1 -6 -9 -11 -23 -11 -16 0 -24 5 -22 14 2 9 -3 11 -13 7 -9 -3 -14 -2 -11 3 3
5 0 11 -8 14 -14 6 -16 57 -2 57 3 0 8 -5 12 -12z m75 -10 c6 -12 6 -18 -1
-18 -5 0 -10 6 -10 13 0 7 -9 13 -20 14 -11 1 -19 -3 -17 -9 1 -6 -5 -13 -13
-15 -13 -4 -13 -3 0 6 8 6 11 11 7 11 -5 0 -6 4 -2 9 9 16 46 8 56 -11z m84
14 c-20 -14 -16 -39 6 -38 21 1 35 -27 23 -45 -6 -11 -34 0 -34 13 0 6 6 6 14
-2 12 -9 15 -8 13 10 -1 15 -7 20 -22 18 -14 -2 -20 3 -21 17 -1 26 4 35 19
35 8 0 8 -3 2 -8z m111 -15 c1 -9 -2 -17 -8 -17 -6 0 -8 6 -5 14 3 8 2 17 -4
20 -5 2 -4 3 2 2 7 -1 13 -10 15 -19z m117 17 c9 -9 -24 -55 -34 -48 -5 3 -9
-4 -9 -15 0 -12 6 -20 13 -18 6 1 12 -4 12 -12 0 -8 -6 -15 -13 -17 -7 -1 -8
0 -2 3 14 7 12 23 -2 21 -8 -2 -13 7 -13 22 0 14 5 24 11 23 5 -1 16 8 23 19
11 18 11 20 -3 15 -9 -4 -16 -2 -16 3 0 11 23 14 33 4z m481 -10 c3 -8 2 -12
-4 -9 -6 3 -10 10 -10 16 0 14 7 11 14 -7z m31 -2 c-3 -3 -11 0 -18 7 -9 10
-8 11 6 5 10 -3 15 -9 12 -12z m-350 -2 c-3 -5 0 -10 7 -11 10 0 10 -2 0 -6
-6 -2 -9 -10 -6 -15 4 -7 2 -8 -5 -4 -6 4 -8 12 -5 18 5 8 1 9 -12 5 -18 -7
-18 -7 0 8 23 17 30 19 21 5z m415 -10 c-24 -15 -36 -11 -14 4 10 8 21 12 24
10 2 -3 -2 -9 -10 -14z m49 -25 c0 -5 -4 -3 -9 5 -5 8 -9 22 -9 30 0 16 17
-16 18 -35z m-1869 22 c0 -7 9 -13 20 -14 11 -1 19 4 17 10 -1 7 9 12 23 12
14 0 24 -5 23 -12 -2 -6 6 -11 17 -10 11 1 20 7 20 14 0 7 5 13 10 13 7 0 7
-6 1 -19 -11 -20 -58 -23 -53 -3 1 7 -7 12 -18 12 -11 0 -19 -5 -17 -12 4 -20
-43 -17 -54 3 -6 13 -6 19 1 19 5 0 10 -6 10 -13z m200 3 c8 -5 11 -10 5 -10
-5 0 -17 5 -25 10 -8 5 -10 10 -5 10 6 0 17 -5 25 -10z m322 -14 c7 4 8 2 4
-5 -9 -14 -36 3 -36 23 0 6 5 3 11 -7 6 -9 15 -14 21 -11z m31 9 c-3 -9 -8
-14 -10 -11 -3 3 -2 9 2 15 9 16 15 13 8 -4z m87 2 c0 -7 9 -13 20 -14 11 -1
19 4 17 10 -1 7 9 12 23 12 14 0 24 -5 23 -12 -2 -6 6 -11 17 -10 11 1 20 7
20 14 0 7 5 13 10 13 7 0 7 -6 1 -19 -11 -20 -58 -23 -53 -3 1 7 -7 12 -18 12
-11 0 -19 -5 -17 -12 3 -17 -43 -18 -50 -2 -3 8 -10 11 -16 7 -6 -3 -7 -1 -3
5 10 16 26 15 26 -1z m180 3 c0 -5 -5 -10 -11 -10 -5 0 -7 5 -4 10 3 6 8 10
11 10 2 0 4 -4 4 -10z m160 0 c0 -5 -2 -10 -4 -10 -3 0 -8 5 -11 10 -3 6 -1
10 4 10 6 0 11 -4 11 -10z m115 0 c-3 -5 -12 -10 -18 -10 -7 0 -6 4 3 10 19
12 23 12 15 0z m70 -10 c0 -7 -8 -14 -18 -16 -9 -1 -15 2 -11 7 3 5 10 7 15 4
5 -4 9 -2 9 4 0 5 -5 12 -10 14 -6 3 -5 4 2 3 7 -2 13 -9 13 -16z m165 10 c0
-5 -4 -10 -10 -10 -5 0 -10 5 -10 10 0 6 5 10 10 10 6 0 10 -4 10 -10z m-1161
-16 c4 3 13 0 21 -5 11 -7 9 -8 -9 -6 -14 2 -26 9 -27 16 -1 6 0 7 3 1 2 -5 8
-8 12 -6z m1117 -26 c-1 -13 -7 -22 -14 -20 -7 1 -12 -7 -12 -19 0 -11 4 -18
9 -15 5 3 16 -5 25 -18 13 -20 13 -25 1 -30 -10 -3 -12 0 -8 11 4 11 2 14 -5
9 -8 -5 -10 -2 -6 9 4 10 2 15 -7 13 -9 -2 -14 6 -14 22 0 14 5 24 12 23 6 -2
11 6 10 17 -1 11 -7 20 -14 20 -7 0 -13 5 -13 10 0 7 6 7 19 1 10 -6 18 -20
17 -33z m-500 6 c-3 -15 -8 -29 -11 -32 -3 -3 -3 5 -1 19 2 13 5 27 5 32 1 4
3 7 6 7 3 0 3 -12 1 -26z m124 16 c0 -5 -4 -10 -10 -10 -5 0 -10 5 -10 10 0 6
5 10 10 10 6 0 10 -4 10 -10z m460 -16 c0 -8 -4 -14 -10 -14 -5 0 -6 8 -3 18
6 15 5 15 -10 3 -10 -7 -17 -9 -17 -3 0 12 21 22 33 15 4 -2 7 -11 7 -19z
m477 -5 c-2 -25 -35 -45 -49 -31 -6 6 -5 12 3 17 8 5 10 4 5 -3 -4 -7 -4 -12
1 -12 15 0 28 15 31 34 3 17 2 18 -12 7 -9 -8 -16 -9 -16 -3 0 11 21 22 32 15
4 -2 6 -13 5 -24z m-1594 7 c11 1 16 0 13 -4 -13 -12 -36 -10 -48 6 -11 15
-11 15 2 6 8 -6 23 -10 33 -8z m814 -8 c-3 -8 -6 -5 -6 6 -1 11 2 17 5 13 3
-3 4 -12 1 -19z m53 18 c0 -2 -7 -6 -15 -10 -8 -3 -15 -1 -15 4 0 6 7 10 15
10 8 0 15 -2 15 -4z m187 -18 c-3 -8 -6 -5 -6 6 -1 11 2 17 5 13 3 -3 4 -12 1
-19z m477 6 c3 -8 2 -12 -4 -9 -6 3 -10 1 -10 -6 0 -7 -2 -10 -5 -7 -5 5 4 38
10 38 2 0 6 -7 9 -16z m-1284 2 c0 -2 -8 -10 -17 -17 -16 -13 -17 -12 -4 4 13
16 21 21 21 13z m35 -6 c-3 -5 -12 -10 -18 -10 -7 0 -6 4 3 10 19 12 23 12 15
0z m35 0 c0 -5 -4 -10 -10 -10 -5 0 -10 5 -10 10 0 6 5 10 10 10 6 0 10 -4 10
-10z m257 4 c-3 -3 -12 -4 -19 -1 -8 3 -5 6 6 6 11 1 17 -2 13 -5z m160 -16
c-3 -8 -6 -5 -6 6 -1 11 2 17 5 13 3 -3 4 -12 1 -19z m263 12 c0 -5 -4 -10
-10 -10 -5 0 -10 5 -10 10 0 6 5 10 10 10 6 0 10 -4 10 -10z m155 -8 c-3 -3
-11 0 -18 7 -9 10 -8 11 6 5 10 -3 15 -9 12 -12z m340 9 c3 -5 2 -12 -3 -15
-5 -3 -9 1 -9 9 0 17 3 19 12 6z m-1718 -7 c-3 -3 -12 -4 -19 -1 -8 3 -5 6 6
6 11 1 17 -2 13 -5z m90 0 c-3 -3 -12 -4 -19 -1 -8 3 -5 6 6 6 11 1 17 -2 13
-5z m550 0 c-3 -3 -12 -4 -19 -1 -8 3 -5 6 6 6 11 1 17 -2 13 -5z m90 0 c-3
-3 -12 -4 -19 -1 -8 3 -5 6 6 6 11 1 17 -2 13 -5z m400 0 c-3 -3 -12 -4 -19
-1 -8 3 -5 6 6 6 11 1 17 -2 13 -5z m-1075 -29 c-2 -15 3 -21 18 -22 18 -2 19
1 10 13 -8 8 -8 14 -2 14 13 0 24 -28 13 -34 -18 -12 -46 2 -45 23 0 14 -5 21
-18 21 -11 0 -17 -4 -13 -9 9 -15 -13 -23 -32 -11 -16 9 -15 10 5 5 12 -4 22
-3 21 2 -3 19 2 24 24 21 16 -2 21 -9 19 -23z m68 15 c0 -5 -4 -10 -10 -10 -5
0 -10 5 -10 10 0 6 5 10 10 10 6 0 10 -4 10 -10z m474 -14 c-3 -9 -10 -16 -15
-16 -5 0 -4 9 3 20 14 22 21 20 12 -4z m100 15 c3 -5 -2 -15 -12 -22 -15 -13
-16 -12 -3 4 12 15 11 17 -6 17 -14 0 -19 -7 -19 -21 1 -21 -27 -35 -45 -23
-11 6 0 34 13 34 6 0 6 -6 -2 -14 -9 -12 -8 -15 10 -13 12 1 20 8 19 17 -1 8
-1 18 0 23 1 10 39 9 45 -2z m118 -10 c-2 -9 3 -11 13 -7 9 3 14 2 10 -3 -3
-5 0 -11 7 -13 14 -5 21 -45 9 -53 -5 -3 -13 0 -17 6 -4 7 -3 9 4 5 6 -4 10 1
9 13 0 11 -12 24 -25 30 -13 6 -21 15 -17 20 3 6 -4 9 -15 8 -11 -1 -20 -6
-20 -11 0 -5 -3 -7 -6 -3 -11 11 5 24 28 23 13 -1 22 -7 20 -15z m282 -8 c-1
-15 4 -21 17 -20 21 1 25 12 9 20 -6 3 -5 4 2 3 24 -5 14 -31 -12 -31 -19 0
-25 5 -24 22 1 15 -4 21 -17 20 -22 -1 -25 -13 -6 -20 9 -4 9 -6 0 -6 -15 -1
-26 16 -19 28 3 4 16 8 28 7 17 -1 23 -7 22 -23z m60 11 c3 -8 2 -12 -4 -9 -6
3 -10 10 -10 16 0 14 7 11 14 -7z m166 -1 c0 -3 -7 -3 -15 1 -10 4 -15 -1 -16
-17 0 -12 -3 -16 -6 -9 -8 21 5 42 22 36 8 -3 15 -8 15 -11z m-802 -5 c-2 -6
-10 -13 -16 -14 -7 -1 -8 0 -2 3 5 2 8 9 4 14 -3 5 0 9 6 9 7 0 10 -5 8 -12z
m839 6 c-3 -3 -12 -4 -19 -1 -8 3 -5 6 6 6 11 1 17 -2 13 -5z m38 -4 c3 -6 -1
-7 -9 -4 -18 7 -21 14 -7 14 6 0 13 -4 16 -10z m-1178 -12 c0 -8 -13 -13 -28
-13 -30 0 -27 10 6 18 11 3 20 5 21 6 0 0 1 -5 1 -11z m213 8 c0 -2 -8 -10
-17 -17 -16 -13 -17 -12 -4 4 13 16 21 21 21 13z m50 -28 c0 -19 -16 -5 -17
14 -2 18 0 20 7 8 5 -8 10 -18 10 -22z m240 12 c-6 -11 -15 -18 -21 -15 -5 4
-9 -3 -9 -14 0 -12 6 -20 12 -18 7 1 14 -8 16 -21 2 -13 8 -20 14 -16 6 4 8 2
5 -4 -4 -5 -15 -9 -25 -8 -9 2 -25 -8 -34 -23 -10 -14 -18 -22 -18 -18 0 16
32 57 41 51 5 -3 9 4 9 15 0 12 -6 20 -12 19 -8 -2 -13 7 -13 22 0 15 5 24 13
23 6 -2 12 4 12 12 0 8 5 15 10 15 7 0 7 -7 0 -20z m257 14 c-2 -3 -17 -7 -33
-10 -17 -2 -24 -1 -17 4 13 8 58 14 50 6z m868 -3 c-3 -2 -16 -6 -28 -8 -15
-2 -18 0 -9 5 14 9 45 12 37 3z m-1079 -22 c15 2 13 -40 -2 -46 -8 -3 -11 -10
-7 -16 3 -6 1 -7 -5 -3 -16 10 -15 26 1 26 7 0 13 9 14 20 1 11 -3 19 -9 17
-6 -1 -13 5 -15 13 -4 12 -3 12 5 2 5 -8 13 -13 18 -13z m32 -4 c-3 -3 -9 2
-12 12 -6 14 -5 15 5 6 7 -7 10 -15 7 -18z m197 12 c-11 -7 -21 -20 -23 -31
-2 -12 1 -16 9 -10 8 4 10 3 5 -5 -11 -17 -26 -3 -23 20 3 21 23 39 42 38 6 0
1 -5 -10 -12z m370 -5 c-3 -3 -11 0 -18 7 -9 10 -8 11 6 5 10 -3 15 -9 12 -12z
m-1390 -2 c-3 -5 -11 -10 -16 -10 -6 0 -7 5 -4 10 3 6 11 10 16 10 6 0 7 -4 4
-10z m76 -35 c9 -18 9 -19 -4 -3 -8 10 -16 16 -18 13 -3 -2 -6 6 -6 18 -2 23
6 15 28 -28z m489 19 c0 -16 -7 -17 -35 -3 -18 9 -18 9 3 5 18 -3 22 -1 18 10
-3 9 -1 12 4 9 6 -3 10 -13 10 -21z m500 16 c0 -5 -4 -10 -10 -10 -5 0 -10 5
-10 10 0 6 5 10 10 10 6 0 10 -4 10 -10z m116 -16 c-3 -15 -8 -29 -11 -32 -3
-3 -3 5 -1 19 2 13 5 27 5 32 1 4 3 7 6 7 3 0 3 -12 1 -26z m179 16 c4 -6 -1
-7 -12 -3 -16 6 -17 5 -3 -13 14 -18 14 -18 -2 -5 -10 7 -18 17 -18 22 0 12
27 11 35 -1z m102 -7 c0 -9 -4 -10 -14 -2 -7 6 -13 12 -13 14 0 1 6 2 13 2 8
0 14 -6 14 -14z m-1324 -8 c-3 -9 -8 -14 -10 -11 -3 3 -2 9 2 15 9 16 15 13 8
-4z m92 -3 c-3 -3 -11 0 -18 7 -9 10 -8 11 6 5 10 -3 15 -9 12 -12z m672 -4
c-3 -8 -6 -5 -6 6 -1 11 2 17 5 13 3 -3 4 -12 1 -19z m43 12 c0 -5 -4 -10 -10
-10 -5 0 -10 5 -10 10 0 6 5 10 10 10 6 0 10 -4 10 -10z m27 -12 c-3 -8 -6 -5
-6 6 -1 11 2 17 5 13 3 -3 4 -12 1 -19z m856 8 c4 -11 0 -13 -15 -11 -11 3
-23 7 -27 11 -3 4 2 4 12 1 9 -4 17 -2 17 3 0 15 7 12 13 -4z m30 1 c3 -8 2
-20 -3 -26 -5 -9 -7 -4 -7 13 0 29 2 32 10 13z m-1823 -1 c0 -2 -7 -6 -15 -10
-8 -3 -15 -1 -15 4 0 6 7 10 15 10 8 0 15 -2 15 -4z m150 -6 c0 -5 -2 -10 -4
-10 -3 0 -8 5 -11 10 -3 6 -1 10 4 10 6 0 11 -4 11 -10z m287 4 c-3 -3 -12 -4
-19 -1 -8 3 -5 6 6 6 11 1 17 -2 13 -5z m140 -3 c-10 -4 -17 -11 -15 -16 2 -6
-8 -11 -22 -12 l-25 -2 25 8 c14 5 21 9 17 10 -16 2 4 21 21 20 15 0 15 -1 -1
-8z m153 -1 c0 -5 -4 -10 -10 -10 -5 0 -10 5 -10 10 0 6 5 10 10 10 6 0 10 -4
10 -10z m273 -9 c-2 -6 6 -11 17 -11 11 0 19 5 18 12 -2 6 6 13 17 15 18 3 18
2 2 -5 -10 -4 -18 -12 -18 -17 1 -6 -8 -10 -19 -10 -11 0 -20 4 -19 9 0 5 -5
13 -13 18 -10 8 -10 9 2 5 8 -2 14 -10 13 -16z m184 13 c-3 -3 -12 -4 -19 -1
-8 3 -5 6 6 6 11 1 17 -2 13 -5z m-1226 -21 c13 -16 12 -17 -3 -4 -10 7 -18
15 -18 17 0 8 8 3 21 -13z m521 3 c7 4 8 2 4 -5 -9 -13 -26 -5 -25 12 0 9 2 8
6 -1 2 -6 10 -9 15 -6z m155 8 c-3 -3 -12 -4 -19 -1 -8 3 -5 6 6 6 11 1 17 -2
13 -5z m480 0 c-3 -3 -12 -4 -19 -1 -8 3 -5 6 6 6 11 1 17 -2 13 -5z m-690
-10 c-3 -3 -12 -4 -19 -1 -8 3 -5 6 6 6 11 1 17 -2 13 -5z m177 -24 c0 -13 -6
-25 -14 -28 -9 -2 -11 0 -5 5 6 4 10 15 10 23 0 8 -4 19 -10 23 -6 5 -4 7 5 5
8 -3 14 -15 14 -28z m58 -16 c-6 -12 -9 -7 -9 16 0 23 3 28 9 16 5 -9 5 -23 0
-32z m266 28 c2 -7 7 -10 11 -8 4 3 8 -1 8 -8 0 -8 -6 -12 -14 -9 -7 3 -13 10
-13 17 0 6 -9 12 -20 12 -11 0 -20 -6 -20 -13 0 -16 -16 -17 -26 -1 -4 6 -3 8
3 5 6 -4 13 -1 16 6 6 17 49 15 55 -1z m158 -5 c1 -9 -2 -17 -8 -17 -6 0 -8 6
-5 14 3 8 2 17 -4 20 -5 2 -4 3 2 2 7 -1 13 -10 15 -19z m98 11 c-3 -5 -10 -6
-15 -3 -5 4 -9 2 -9 -4 0 -5 6 -12 13 -14 9 -4 9 -6 0 -6 -14 -1 -26 16 -19
27 3 5 12 9 20 9 8 0 13 -4 10 -9z m571 2 c-3 -5 -12 -10 -18 -10 -7 0 -6 4 3
10 19 12 23 12 15 0z m-1683 -25 c3 -13 1 -22 -3 -19 -9 5 -13 44 -5 44 2 0 6
-11 8 -25z m-84 1 c-7 -8 -15 -12 -17 -11 -5 6 10 25 20 25 5 0 4 -6 -3 -14z
m452 9 c0 -2 -6 -8 -13 -14 -10 -8 -14 -7 -14 2 0 8 6 14 14 14 7 0 13 -1 13
-2z m70 -3 c0 -4 -10 -9 -22 -9 -18 -2 -20 0 -8 7 18 12 30 13 30 2z m130 -2
c0 -5 -4 -10 -10 -10 -5 0 -10 5 -10 10 0 6 5 10 10 10 6 0 10 -4 10 -10z
m160 -1 c-8 -5 -24 -14 -35 -20 -18 -9 -19 -9 -3 4 10 8 16 16 13 18 -2 3 6 6
18 6 17 2 19 0 7 -8z m210 -6 c0 -3 -7 -2 -16 1 -12 5 -14 1 -9 -17 5 -19 4
-20 -5 -4 -13 21 -5 38 15 30 8 -3 15 -7 15 -10z m45 7 c-3 -5 -12 -10 -18
-10 -7 0 -6 4 3 10 19 12 23 12 15 0z m70 -1 c11 -16 1 -19 -13 -3 -7 8 -8 14
-3 14 5 0 13 -5 16 -11z m85 2 c0 -6 -4 -12 -8 -15 -5 -3 -9 1 -9 9 0 8 4 15
9 15 4 0 8 -4 8 -9z m35 -9 c-3 -3 -11 0 -18 7 -9 10 -8 11 6 5 10 -3 15 -9
12 -12z m-403 -6 c6 4 8 2 5 -4 -4 -5 -17 -8 -29 -4 -16 4 -19 2 -13 -8 6 -9
4 -11 -5 -5 -10 6 -9 11 6 22 12 9 20 10 22 3 2 -5 9 -7 14 -4z m-812 -6 c0
-5 -4 -10 -10 -10 -5 0 -10 5 -10 10 0 6 5 10 10 10 6 0 10 -4 10 -10z m77 -5
c0 -8 -4 -12 -9 -9 -5 3 -6 10 -3 15 9 13 12 11 12 -6z m363 0 c0 -12 -19 -12
-23 0 -4 9 -1 12 9 8 7 -3 14 -7 14 -8z m92 1 c-2 -5 2 -13 10 -18 10 -8 10
-9 -2 -5 -8 2 -14 10 -12 16 1 6 -7 11 -17 11 -14 0 -18 -5 -14 -19 3 -10 1
-21 -4 -24 -7 -4 -9 30 -4 51 1 2 11 2 24 0 12 -2 20 -7 19 -12z m348 4 c0 -5
-4 -10 -10 -10 -5 0 -10 5 -10 10 0 6 5 10 10 10 6 0 10 -4 10 -10z m200 0 c0
-5 -5 -10 -11 -10 -5 0 -7 5 -4 10 3 6 8 10 11 10 2 0 4 -4 4 -10z m680 6 c0
-2 -7 -7 -16 -10 -8 -3 -12 -2 -9 4 6 10 25 14 25 6z m-764 -31 c0 -14 -3 -25
-7 -25 -3 0 -6 11 -6 25 0 14 3 25 6 25 4 0 7 -11 7 -25z m54 21 c0 -2 -7 -6
-15 -10 -8 -3 -15 -1 -15 4 0 6 7 10 15 10 8 0 15 -2 15 -4z m-1016 -14 c3 -5
-1 -9 -9 -9 -8 0 -15 4 -15 9 0 4 4 8 9 8 6 0 12 -4 15 -8z m380 -8 c3 -8 2
-12 -4 -9 -6 3 -10 10 -10 16 0 14 7 11 14 -7z m196 9 c0 -5 -12 -9 -27 -10
-19 -1 -22 1 -12 8 17 11 39 12 39 2z m104 -1 c2 -4 -5 -9 -17 -9 -17 -2 -19
0 -7 7 18 12 18 12 24 2z m42 -4 c4 -7 3 -8 -4 -4 -7 4 -12 2 -12 -5 0 -7 -3
-10 -6 -6 -6 5 3 27 11 27 2 0 7 -5 11 -12z m104 -12 c0 -2 -9 -2 -20 1 -11 3
-20 9 -20 15 0 5 9 4 20 -2 11 -6 20 -12 20 -14z m260 14 c0 -5 -4 -10 -10
-10 -5 0 -10 5 -10 10 0 6 5 10 10 10 6 0 10 -4 10 -10z m665 0 c3 -6 -1 -7
-9 -4 -18 7 -21 14 -7 14 6 0 13 -4 16 -10z m-1305 -4 c0 -2 -9 -6 -20 -9 -11
-3 -18 -1 -14 4 5 9 34 13 34 5z m1241 -13 c13 -16 12 -17 -3 -4 -17 13 -22
21 -14 21 2 0 10 -8 17 -17z m-1743 -11 c2 -7 9 -9 14 -6 7 4 8 2 4 -5 -4 -6
-12 -8 -18 -5 -8 5 -9 1 -5 -10 4 -10 3 -15 -4 -11 -5 4 -7 16 -3 27 3 11 2
18 -3 15 -5 -3 -15 -1 -23 4 -11 7 -9 8 9 6 14 -2 27 -9 29 -15z m533 -5 c-10
-9 -11 -8 -5 6 3 10 9 15 12 12 3 -3 0 -11 -7 -18z m356 -5 c-10 -10 -14 -22
-10 -27 5 -4 2 -5 -5 -1 -9 6 -8 13 5 31 10 13 20 21 22 19 2 -2 -3 -12 -12
-22z m223 18 c8 -5 11 -10 5 -10 -5 0 -17 5 -25 10 -8 5 -10 10 -5 10 6 0 17
-5 25 -10z m75 1 c-9 -8 -36 -10 -30 -2 2 4 11 8 20 8 8 0 13 -3 10 -6z m599
-6 c-4 -8 -11 -12 -16 -9 -6 4 -5 10 3 15 19 12 19 11 13 -6z m-1204 -3 c0 -5
-7 -17 -15 -28 -14 -18 -14 -17 -4 9 12 27 19 34 19 19z m42 -6 c7 4 8 2 4 -4
-11 -18 -26 -14 -25 6 0 10 3 12 6 4 2 -6 10 -9 15 -6z m60 0 c7 4 8 2 4 -4
-11 -18 -26 -14 -25 6 0 10 3 12 6 4 2 -6 10 -9 15 -6z m-211 -13 c12 -16 12
-17 -2 -6 -9 7 -20 9 -24 5 -5 -4 -5 -1 -1 6 9 16 11 15 27 -5z m295 5 c3 -4
-1 -5 -10 -4 -8 1 -18 5 -22 8 -3 4 1 5 10 4 8 -1 18 -5 22 -8z m165 -11 c-10
-9 -11 -8 -5 6 3 10 9 15 12 12 3 -3 0 -11 -7 -18z m799 17 c0 -8 -19 -13 -24
-6 -3 5 1 9 9 9 8 0 15 -2 15 -3z m-733 -19 c0 -8 -4 -12 -9 -9 -5 3 -6 10 -3
15 9 13 12 11 12 -6z m-457 -26 c0 -5 -6 -8 -12 -6 -7 1 -11 -5 -10 -13 2 -8
0 -12 -4 -7 -4 4 -8 16 -9 26 -1 13 4 17 17 13 10 -2 18 -8 18 -13z m115 9 c5
4 5 1 1 -6 -6 -10 -11 -10 -22 -1 -8 6 -14 14 -14 16 0 3 6 0 13 -6 8 -6 18
-7 22 -3z m-642 -15 c-4 -11 -3 -14 5 -9 8 5 10 1 5 -10 -4 -10 -2 -15 4 -11
5 3 10 -1 10 -10 0 -13 -4 -12 -17 5 -10 12 -21 18 -25 14 -4 -4 -2 3 4 16 14
26 23 30 14 5z m47 3 c-7 -7 -13 -7 -20 0 -6 6 -3 10 10 10 13 0 16 -4 10 -10z
m1720 9 c0 -2 -10 -9 -22 -15 -22 -11 -22 -10 -4 4 21 17 26 19 26 11z m-82
-30 c-3 -3 -9 2 -12 12 -6 14 -5 15 5 6 7 -7 10 -15 7 -18z m-1142 -19 c0 -14
-3 -23 -7 -20 -6 3 -6 22 0 42 3 10 7 -2 7 -22z m1200 -12 c1 -9 0 -13 -4 -10
-3 4 -7 14 -8 22 -1 9 0 13 4 10 3 -4 7 -14 8 -22z m-1741 -14 c3 -5 1 -10 -4
-10 -6 0 -11 5 -11 10 0 6 2 10 4 10 3 0 8 -4 11 -10z m1703 -61 c-3 -8 -7 -3
-11 10 -4 17 -3 21 5 13 5 -5 8 -16 6 -23z m-1678 9 c0 -4 -4 -8 -9 -8 -6 0
-12 4 -15 8 -3 5 1 9 9 9 8 0 15 -4 15 -9z m1644 -39 c3 -3 -5 -5 -19 -5 -13
0 -22 3 -19 7 4 8 30 6 38 -2z m-1599 -19 c3 -6 -1 -7 -9 -4 -18 7 -21 14 -7
14 6 0 13 -4 16 -10z m1565 -56 c0 -8 -19 -13 -24 -6 -3 5 1 9 9 9 8 0 15 -2
15 -3z m-1496 -30 c3 -8 2 -12 -4 -9 -6 3 -10 10 -10 16 0 14 7 11 14 -7z
m1481 -3 c3 -5 2 -12 -3 -15 -5 -3 -9 1 -9 9 0 17 3 19 12 6z m-75 -111 c0 -5
-2 -10 -4 -10 -3 0 -8 5 -11 10 -3 6 -1 10 4 10 6 0 11 -4 11 -10z"/>
<path d="M503 1579 c1 -10 9 -17 18 -16 10 1 17 9 16 18 -1 10 -9 17 -18 16
-10 -1 -17 -9 -16 -18z"/>
<path d="M1544 1580 c0 -12 7 -18 18 -17 10 1 18 8 18 17 0 9 -8 16 -18 17
-11 1 -18 -5 -18 -17z"/>
<path d="M463 1502 c-1 -11 5 -18 17 -18 12 0 18 7 17 18 -1 10 -8 18 -17 18
-9 0 -16 -8 -17 -18z"/>
<path d="M1380 1420 c0 -9 8 -16 18 -17 11 -1 18 5 18 17 0 12 -7 18 -18 17
-10 -1 -18 -8 -18 -17z"/>
<path d="M1544 1420 c0 -12 7 -18 18 -17 10 1 18 8 18 17 0 9 -8 16 -18 17
-11 1 -18 -5 -18 -17z"/>
<path d="M1477 2329 c7 -7 15 -10 18 -7 3 3 -2 9 -12 12 -14 6 -15 5 -6 -5z"/>
<path d="M1635 2280 c-3 -6 1 -7 9 -4 18 7 21 14 7 14 -6 0 -13 -4 -16 -10z"/>
<path d="M1670 2268 c0 -6 3 -8 7 -5 3 4 13 1 22 -6 14 -11 14 -10 2 6 -15 20
-31 22 -31 5z"/>
<path d="M1750 2240 c0 -5 5 -10 11 -10 5 0 7 5 4 10 -3 6 -8 10 -11 10 -2 0
-4 -4 -4 -10z"/>
<path d="M1815 2220 c3 -5 8 -10 11 -10 2 0 4 5 4 10 0 6 -5 10 -11 10 -5 0
-7 -4 -4 -10z"/>
<path d="M1950 2109 c0 -5 5 -7 10 -4 6 3 10 8 10 11 0 2 -4 4 -10 4 -5 0 -10
-5 -10 -11z"/>
<path d="M1975 2099 c-4 -6 -5 -12 -2 -15 2 -3 7 2 10 11 7 17 1 20 -8 4z"/>
<path d="M2147 1879 c7 -7 15 -10 18 -7 3 3 -2 9 -12 12 -14 6 -15 5 -6 -5z"/>
<path d="M677 607 c-3 -8 1 -14 8 -14 7 0 11 6 8 14 -3 7 -6 13 -8 13 -2 0 -5
-6 -8 -13z"/>
<path d="M746 519 c2 -4 13 -7 24 -6 23 2 17 10 -10 12 -10 1 -17 -2 -14 -6z"/>
<path d="M1766 463 c-6 -14 -5 -15 5 -6 7 7 10 15 7 18 -3 3 -9 -2 -12 -12z"/>
<path d="M1130 380 c0 -5 5 -10 11 -10 5 0 7 5 4 10 -3 6 -8 10 -11 10 -2 0
-4 -4 -4 -10z"/>
</g>
</svg>
